<svg width="1200" height="800" viewBox="0 0 1200 800" xmlns="http://www.w3.org/2000/svg" role="img" aria-label="Clinic lounge illustration">
  <defs>
    <linearGradient id="g1" x1="0" y1="0" x2="1" y2="1">
      <stop offset="0" stop-color="#fff4e6"/>
      <stop offset="1" stop-color="#ffd8b5"/>
    </linearGradient>
  </defs>
  <rect width="1200" height="800" rx="40" fill="url(#g1)"/>
  <circle cx="200" cy="150" r="110" fill="#fff" opacity="0.5"/>
  <circle cx="950" cy="200" r="160" fill="#fff" opacity="0.35"/>
  <rect x="220" y="380" width="760" height="200" rx="40" fill="#0e5854" opacity="0.12"/>
  <rect x="260" y="420" width="340" height="140" rx="26" fill="#fff" opacity="0.9"/>
  <rect x="640" y="420" width="300" height="140" rx="26" fill="#0e5854" opacity="0.2"/>
  <rect x="680" y="460" width="220" height="80" rx="20" fill="#fff" opacity="0.92"/>
  <path d="M420 280h360c30 0 60 24 60 60v40h-480v-40c0-36 26-60 60-60z" fill="#0e5854" opacity="0.18"/>
  <rect x="370" y="280" width="60" height="120" rx="20" fill="#0e5854" opacity="0.25"/>
  <rect x="770" y="280" width="60" height="120" rx="20" fill="#0e5854" opacity="0.25"/>
</svg>
