<svg width="1200" height="800" viewBox="0 0 1200 800" xmlns="http://www.w3.org/2000/svg" role="img" aria-label="Treatment room illustration">
  <defs>
    <linearGradient id="g2" x1="0" y1="0" x2="1" y2="1">
      <stop offset="0" stop-color="#e8f7ff"/>
      <stop offset="1" stop-color="#c7e7ff"/>
    </linearGradient>
  </defs>
  <rect width="1200" height="800" rx="40" fill="url(#g2)"/>
  <circle cx="180" cy="180" r="140" fill="#fff" opacity="0.4"/>
  <circle cx="980" cy="160" r="180" fill="#fff" opacity="0.28"/>
  <rect x="200" y="340" width="820" height="220" rx="36" fill="#0e5854" opacity="0.12"/>
  <rect x="260" y="380" width="260" height="160" rx="24" fill="#fff" opacity="0.94"/>
  <rect x="560" y="380" width="420" height="160" rx="32" fill="#0e5854" opacity="0.22"/>
  <rect x="620" y="420" width="300" height="90" rx="22" fill="#fff" opacity="0.9"/>
  <path d="M360 300c20-60 90-90 140-60 30 20 40 60 70 60 30 0 40-40 74-60 48-30 110 4 130 60" stroke="#0e5854" stroke-width="16" stroke-linecap="round" fill="none" opacity="0.6"/>
</svg>
