<svg width="1600" height="900" viewBox="0 0 1600 900" xmlns="http://www.w3.org/2000/svg" role="img" aria-label="Dental care illustration">
  <defs>
    <linearGradient id="bg" x1="0%" y1="0%" x2="100%" y2="100%">
      <stop stop-color="#e5fbf5" offset="0"/>
      <stop stop-color="#b3e3da" offset="0.5"/>
      <stop stop-color="#6fcfbc" offset="1"/>
    </linearGradient>
    <linearGradient id="shine" x1="0%" y1="0%" x2="0%" y2="100%">
      <stop stop-color="#ffffff" stop-opacity="0.85" offset="0"/>
      <stop stop-color="#ffffff" stop-opacity="0" offset="1"/>
    </linearGradient>
  </defs>
  <rect width="1600" height="900" fill="url(#bg)"/>
  <circle cx="250" cy="160" r="120" fill="#fff" opacity="0.32"/>
  <circle cx="1400" cy="210" r="180" fill="#fff" opacity="0.2"/>
  <path d="M520 200c120-140 440-150 560 0 70 90-10 246-84 328-64 72-94 207-149 227-49 18-79-70-147-67-79 3-122 96-171 73-61-28-48-195-122-282-68-80-104-190 113-279z" fill="#0e5854" opacity="0.12"/>
  <path d="M800 220c80 0 136 60 136 150 0 100-60 156-94 202-25 35-46 88-72 88-26 0-48-52-72-88-34-46-94-102-94-202 0-90 56-150 136-150 24 0 48 6 68 18 20-12 44-18 68-18z" fill="#fff" stroke="#0e5854" stroke-width="8" opacity="0.95"/>
  <path d="M748 280c-22 30-32 76-24 120" stroke="#53a89b" stroke-width="12" stroke-linecap="round"/>
  <path d="M852 280c22 30 32 76 24 120" stroke="#53a89b" stroke-width="12" stroke-linecap="round"/>
  <path d="M680 420c18 40 62 64 120 64 58 0 102-24 120-64" stroke="#0e5854" stroke-width="10" stroke-linecap="round" fill="none"/>
  <ellipse cx="800" cy="520" rx="280" ry="110" fill="#fff" opacity="0.38"/>
  <rect x="260" y="480" width="280" height="120" rx="28" fill="#0e5854" opacity="0.14"/>
  <rect x="1080" y="360" width="260" height="120" rx="32" fill="#fff" opacity="0.22"/>
  <rect x="1040" y="560" width="220" height="140" rx="26" fill="#0e5854" opacity="0.2"/>
  <rect x="740" y="540" width="180" height="60" rx="14" fill="#0e5854" opacity="0.4"/>
  <rect x="780" y="560" width="100" height="60" rx="12" fill="#fff" opacity="0.8"/>
  <rect x="0" y="0" width="1600" height="900" fill="url(#shine)"/>
</svg>
