<svg width="1400" height="900" viewBox="0 0 1400 900" xmlns="http://www.w3.org/2000/svg" role="img" aria-label="Dental services illustration">
  <defs>
    <linearGradient id="bg2" x1="0" y1="0" x2="1" y2="1">
      <stop offset="0" stop-color="#f4f9ff" />
      <stop offset="0.4" stop-color="#d9ecff" />
      <stop offset="1" stop-color="#b8d9ff" />
    </linearGradient>
  </defs>
  <rect width="1400" height="900" fill="url(#bg2)"/>
  <circle cx="250" cy="240" r="140" fill="#fff" opacity="0.5"/>
  <circle cx="1180" cy="260" r="200" fill="#fff" opacity="0.25"/>
  <path d="M320 620c80-160 280-260 460-260s320 100 420 260c-80 80-420 80-620 80-120 0-200-32-260-80z" fill="#0e5854" opacity="0.08"/>
  <path d="M420 360c40-80 200-160 280-60 80-100 240-20 280 60 50 100-10 240-70 300-40 40-90 60-140 60s-100-20-140-60c-60-60-120-200-70-300z" fill="#fff" stroke="#0e5854" stroke-width="10"/>
  <path d="M520 480c14 40 70 70 140 70 70 0 126-30 140-70" stroke="#0e5854" stroke-width="10" stroke-linecap="round" fill="none"/>
  <rect x="940" y="520" width="200" height="140" rx="30" fill="#0e5854" opacity="0.16"/>
  <rect x="620" y="560" width="220" height="70" rx="16" fill="#0e5854" opacity="0.3"/>
  <rect x="640" y="580" width="180" height="60" rx="14" fill="#fff" opacity="0.9"/>
  <path d="M420 360c20 30 50 60 90 70" stroke="#53a89b" stroke-width="12" stroke-linecap="round"/>
  <path d="M980 360c-20 30-50 60-90 70" stroke="#53a89b" stroke-width="12" stroke-linecap="round"/>
</svg>
